<?xml version="1.0" standalone="no"?>
<!DOCTYPE svg PUBLIC "-//W3C//DTD SVG 20010904//EN"
 "http://www.w3.org/TR/2001/REC-SVG-20010904/DTD/svg10.dtd">
<svg version="1.0" xmlns="http://www.w3.org/2000/svg"
 width="902.000000pt" height="1394.000000pt" viewBox="0 0 902.000000 1394.000000"
 preserveAspectRatio="xMidYMid meet">
<metadata>
Created by potrace 1.15, written by Peter Selinger 2001-2017
</metadata>
<g transform="translate(0.000000,1394.000000) scale(0.100000,-0.100000)"
fill="#000000" stroke="none">
<path d="M6833 13921 c-191 -52 -338 -143 -513 -320 -223 -224 -418 -538 -588
-946 -417 -1001 -835 -1575 -1290 -1775 -167 -74 -229 -85 -467 -84 -181 1
-221 4 -287 22 -119 32 -186 69 -253 136 -75 76 -112 145 -170 322 -51 154
-98 246 -214 422 -227 343 -501 666 -914 1075 -419 415 -664 637 -840 758
-125 86 -185 111 -284 117 -75 4 -87 2 -145 -25 -80 -38 -208 -140 -258 -207
-81 -107 -126 -247 -157 -486 -16 -118 -18 -223 -17 -830 0 -678 4 -843 49
-1910 17 -410 40 -1043 56 -1575 16 -506 16 -1415 0 -1640 -22 -336 -59 -572
-118 -759 -14 -45 -64 -164 -113 -266 -116 -245 -192 -447 -240 -633 -52 -204
-70 -344 -70 -541 0 -263 39 -444 140 -652 95 -196 219 -337 455 -516 170
-128 290 -251 330 -334 23 -47 29 -77 33 -146 6 -112 -11 -186 -98 -438 -137
-394 -196 -725 -221 -1239 -22 -467 31 -946 130 -1158 61 -129 199 -230 368
-270 116 -27 351 -24 502 6 445 88 862 351 1029 651 48 86 73 173 82 292 14
168 45 204 157 180 31 -6 115 -41 187 -78 335 -170 705 -234 1276 -221 632 15
1253 135 1785 344 248 98 426 194 705 379 808 537 1659 1452 2006 2159 118
241 160 394 152 556 -4 87 -5 90 -80 236 -94 183 -137 294 -195 493 -131 457
-216 1107 -262 2000 -31 585 -35 881 -31 1980 9 2169 4 2557 -36 2970 -43 450
-108 701 -258 1005 -247 497 -546 814 -876 926 -86 30 -108 33 -235 36 -114 2
-153 -1 -212 -16z m266 -522 c202 -101 537 -556 660 -895 102 -282 179 -714
222 -1244 17 -216 23 -1001 10 -1290 -59 -1275 -269 -2378 -563 -2964 -55
-111 -97 -174 -189 -289 -100 -124 -132 -185 -132 -254 0 -99 74 -183 311
-350 379 -266 462 -352 519 -538 25 -83 25 -389 0 -605 -35 -292 -138 -762
-222 -1014 -44 -133 -83 -212 -143 -291 -96 -128 -148 -296 -162 -530 -5 -82
-15 -168 -21 -189 -44 -155 -180 -202 -503 -175 -94 8 -268 14 -386 13 -205 0
-219 -2 -295 -27 -180 -59 -262 -141 -400 -397 -37 -69 -90 -158 -119 -198
-238 -329 -683 -690 -1026 -832 -80 -33 -217 -70 -263 -70 -69 0 -217 112
-287 218 -57 87 -37 211 60 355 72 107 136 174 293 306 201 168 272 248 328
366 37 76 37 118 3 152 -24 24 -30 25 -102 20 -160 -11 -380 -117 -630 -304
-319 -239 -580 -371 -637 -323 -30 25 -18 91 35 198 106 212 333 517 764 1027
269 318 413 513 558 755 183 305 279 556 281 740 2 107 -17 165 -72 220 -73
72 -174 93 -312 66 -330 -66 -638 -420 -579 -666 14 -58 57 -108 145 -170 62
-44 99 -109 90 -160 -14 -78 -121 -197 -300 -332 -191 -145 -215 -116 -116
139 99 257 93 342 -25 330 -95 -10 -265 -93 -549 -271 -227 -142 -407 -219
-615 -263 -104 -22 -382 -25 -475 -5 -268 58 -431 147 -498 269 -48 89 -60
167 -53 353 3 91 9 240 12 332 9 247 -14 384 -92 545 -76 158 -205 263 -379
308 -33 9 -135 20 -227 25 -189 10 -268 28 -322 71 -103 85 -55 227 173 509
51 63 106 140 121 170 65 128 97 286 109 537 15 296 -4 638 -79 1448 -115
1234 -163 2151 -163 3145 0 1092 65 1620 201 1620 37 0 128 -53 228 -132 166
-133 514 -495 777 -810 151 -180 1072 -1322 1219 -1510 174 -224 269 -295 473
-349 107 -29 329 -31 458 -6 319 64 655 260 857 502 262 313 671 945 990 1530
321 589 653 1046 854 1177 73 47 103 48 185 7z m-4621 -10455 c133 -93 101
-574 -84 -1229 -256 -906 -537 -1380 -819 -1380 -132 0 -289 120 -364 278 -86
179 -116 405 -108 807 9 447 76 838 191 1125 92 228 227 367 289 298 57 -65
57 -328 -2 -903 -45 -446 -62 -674 -52 -723 l7 -31 22 46 c12 26 51 143 87
260 149 481 223 681 340 926 86 179 153 291 227 383 112 139 202 188 266 143z"/>
<path d="M7035 12778 c-185 -65 -403 -409 -914 -1438 -364 -733 -455 -983
-456 -1255 0 -96 4 -134 22 -190 54 -171 191 -329 465 -535 59 -44 129 -103
157 -131 143 -145 208 -323 167 -458 -32 -108 -15 -228 49 -350 141 -267 416
-407 583 -296 93 61 224 286 291 498 111 349 168 917 178 1772 8 640 -14 1139
-67 1545 -38 290 -77 445 -141 567 -121 229 -221 311 -334 271z"/>
<path d="M1235 12333 c-74 -73 -137 -452 -166 -988 -13 -245 -7 -1035 10
-1270 38 -535 101 -876 193 -1058 32 -63 95 -126 135 -133 119 -22 240 110
408 445 125 250 222 395 370 550 73 76 204 181 227 181 5 0 42 21 81 46 146
95 247 233 247 339 0 257 -581 1126 -1100 1645 -219 220 -350 298 -405 243z"/>
<path d="M1503 7930 c-57 -29 -109 -89 -147 -169 -28 -59 -31 -75 -31 -161 0
-86 3 -101 32 -163 40 -85 128 -178 199 -213 46 -22 64 -26 123 -22 92 5 140
37 180 122 38 78 45 150 27 251 -18 103 -48 180 -98 255 -59 89 -96 114 -177
118 -52 2 -75 -1 -108 -18z"/>
<path d="M4024 7810 c-128 -10 -275 -39 -354 -69 -258 -97 -236 -308 62 -614
164 -168 178 -168 637 -2 350 127 514 224 572 336 78 154 -74 282 -395 334
-115 19 -378 26 -522 15z"/>
</g>
</svg>
